<svg width="13" height="12" viewBox="0 0 13 12" fill="none" xmlns="http://www.w3.org/2000/svg">
<path d="M1.54545 4.18848H12.4545C12.5992 4.18848 12.7379 4.29383 12.8402 4.48137C12.9425 4.66891 13 4.92326 13 5.18848C13 5.45369 12.9425 5.70805 12.8402 5.89558C12.7379 6.08312 12.5992 6.18848 12.4545 6.18848H1.54545C1.40079 6.18848 1.26205 6.08312 1.15976 5.89558C1.05747 5.70805 1 5.45369 1 5.18848C1 4.92326 1.05747 4.66891 1.15976 4.48137C1.26205 4.29383 1.40079 4.18848 1.54545 4.18848Z" fill="#2E2E2E"/>
<path d="M5.83275 1.52144L1.74555 6.46206C1.69135 6.52757 1.55819 6.52325 1.37536 6.45004C1.19254 6.37682 0.975026 6.24072 0.770672 6.07167C0.566319 5.90261 0.391865 5.71445 0.285691 5.54859C0.179516 5.38272 0.150317 5.25273 0.204517 5.18721L4.29172 0.246602C4.34592 0.181085 4.47908 0.185408 4.6619 0.258621C4.84473 0.331833 5.06224 0.467938 5.26659 0.636993C5.47095 0.806047 5.6454 0.994204 5.75157 1.16007C5.85775 1.32594 5.88695 1.45593 5.83275 1.52144Z" fill="#2E2E2E"/>
<path d="M6.09096 9.68829L1.75772 4.45027C1.70025 4.38081 1.56397 4.38135 1.37883 4.45178C1.1937 4.5222 0.974893 4.65674 0.77054 4.82579C0.566187 4.99485 0.393029 5.18457 0.289161 5.35323C0.185293 5.52188 0.159224 5.65566 0.216686 5.72512L4.54992 10.9631C4.60739 11.0326 4.74367 11.0321 4.92881 10.9616C5.11394 10.8912 5.33275 10.7567 5.5371 10.5876C5.74146 10.4186 5.91461 10.2288 6.01848 10.0602C6.12235 9.89153 6.14842 9.75775 6.09096 9.68829Z" fill="#2E2E2E"/>
</svg>
