<svg width="12" height="12" viewBox="0 0 12 12" fill="none" xmlns="http://www.w3.org/2000/svg">
<path d="M11.5 8C11.5 8.13261 11.4473 8.25979 11.3536 8.35355C11.2598 8.44732 11.1326 8.5 11 8.5H9.5V9.5H10.5C10.6326 9.5 10.7598 9.55268 10.8536 9.64645C10.9473 9.74022 11 9.86739 11 10C11 10.1326 10.9473 10.2598 10.8536 10.3536C10.7598 10.4473 10.6326 10.5 10.5 10.5H9.5V11.5C9.5 11.6326 9.44732 11.7598 9.35355 11.8536C9.25979 11.9473 9.13261 12 9 12C8.86739 12 8.74022 11.9473 8.64645 11.8536C8.55268 11.7598 8.5 11.6326 8.5 11.5V8C8.5 7.86739 8.55268 7.74021 8.64645 7.64645C8.74022 7.55268 8.86739 7.5 9 7.5H11C11.1326 7.5 11.2598 7.55268 11.3536 7.64645C11.4473 7.74021 11.5 7.86739 11.5 8ZM3.25 9.25C3.25 9.71413 3.06563 10.1592 2.73744 10.4874C2.40925 10.8156 1.96413 11 1.5 11H1V11.5C1 11.6326 0.947322 11.7598 0.853553 11.8536C0.759785 11.9473 0.632608 12 0.5 12C0.367392 12 0.240215 11.9473 0.146447 11.8536C0.0526785 11.7598 0 11.6326 0 11.5V8C0 7.86739 0.0526785 7.74021 0.146447 7.64645C0.240215 7.55268 0.367392 7.5 0.5 7.5H1.5C1.96413 7.5 2.40925 7.68437 2.73744 8.01256C3.06563 8.34075 3.25 8.78587 3.25 9.25ZM2.25 9.25C2.25 9.05109 2.17098 8.86032 2.03033 8.71967C1.88968 8.57902 1.69891 8.5 1.5 8.5H1V10H1.5C1.69891 10 1.88968 9.92098 2.03033 9.78033C2.17098 9.63968 2.25 9.44891 2.25 9.25ZM7.75 9.75C7.75 10.3467 7.51295 10.919 7.09099 11.341C6.66903 11.7629 6.09674 12 5.5 12H4.5C4.36739 12 4.24021 11.9473 4.14645 11.8536C4.05268 11.7598 4 11.6326 4 11.5V8C4 7.86739 4.05268 7.74021 4.14645 7.64645C4.24021 7.55268 4.36739 7.5 4.5 7.5H5.5C6.09674 7.5 6.66903 7.73705 7.09099 8.15901C7.51295 8.58097 7.75 9.15326 7.75 9.75ZM6.75 9.75C6.75 9.41848 6.6183 9.10054 6.38388 8.86612C6.14946 8.6317 5.83152 8.5 5.5 8.5H5V11H5.5C5.83152 11 6.14946 10.8683 6.38388 10.6339C6.6183 10.3995 6.75 10.0815 6.75 9.75ZM0 5.5V1C0 0.734784 0.105357 0.48043 0.292893 0.292893C0.48043 0.105357 0.734784 1.54599e-07 1 1.54599e-07H7C7.06568 -5.14929e-05 7.13073 0.0128379 7.19143 0.037932C7.25212 0.063026 7.30728 0.099833 7.35375 0.14625L10.8538 3.64625C10.9002 3.69272 10.937 3.74788 10.9621 3.80858C10.9872 3.86927 11.0001 3.93432 11 4V5.5C11 5.63261 10.9473 5.75979 10.8536 5.85355C10.7598 5.94732 10.6326 6 10.5 6C10.3674 6 10.2402 5.94732 10.1464 5.85355C10.0527 5.75979 10 5.63261 10 5.5V4.5H7C6.86739 4.5 6.74021 4.44732 6.64645 4.35355C6.55268 4.25979 6.5 4.13261 6.5 4V1H1V5.5C1 5.63261 0.947322 5.75979 0.853553 5.85355C0.759785 5.94732 0.632608 6 0.5 6C0.367392 6 0.240215 5.94732 0.146447 5.85355C0.0526785 5.75979 0 5.63261 0 5.5ZM7.5 3.5H9.29313L7.5 1.70688V3.5Z" fill="#D97572"/>
</svg>
