<svg width="22" height="18" viewBox="0 0 22 18" fill="none" xmlns="http://www.w3.org/2000/svg">
<path d="M2.772 3.69929C2.772 2.90284 3.08839 2.13902 3.65156 1.57585C4.21473 1.01268 4.97855 0.696289 5.775 0.696289H11.781C12.5774 0.696289 13.3413 1.01268 13.9044 1.57585C14.4676 2.13902 14.784 2.90284 14.784 3.69929V10.6293C14.7839 11.3953 14.4911 12.1323 13.9655 12.6895C13.4399 13.2467 12.7212 13.582 11.9566 13.6267C11.7906 12.597 11.2632 11.66 10.4691 10.9838C9.67503 10.3075 8.66604 9.93617 7.623 9.93629H4.389C3.81797 9.93629 3.27281 10.0453 2.772 10.244V3.69929ZM18.7175 12.42L15.708 10.3429V3.98758L18.7175 1.90858C19.7902 1.16938 21.2538 1.9363 21.2538 3.24006V11.0894C21.2538 12.3923 19.7902 13.1611 18.7175 12.42ZM11.088 14.3253C11.088 13.4063 10.7229 12.525 10.0731 11.8752C9.42331 11.2254 8.54197 10.8603 7.623 10.8603L7.52875 10.8668C7.35481 10.8907 7.19643 10.9798 7.08563 11.116C6.97483 11.2522 6.91986 11.4254 6.93182 11.6005C6.94379 11.7757 7.02181 11.9398 7.1501 12.0597C7.2784 12.1795 7.44742 12.2462 7.623 12.2463L7.7653 12.2509C8.30382 12.2869 8.80725 12.5308 9.16916 12.9312C9.53107 13.3316 9.72309 13.8571 9.70461 14.3965C9.68613 14.9359 9.4586 15.447 9.07014 15.8217C8.68167 16.1963 8.16272 16.4053 7.623 16.4043L7.62023 16.4089L7.52598 16.4154C7.35153 16.4393 7.19274 16.5288 7.08188 16.6656C6.97101 16.8024 6.91638 16.9763 6.92909 17.1519C6.94179 17.3276 7.02088 17.4918 7.15028 17.6112C7.27968 17.7306 7.44969 17.7963 7.62577 17.7949V17.7903L7.81057 17.7857C8.69585 17.7377 9.52906 17.3522 10.1387 16.7085C10.7484 16.0648 11.0881 15.2119 11.088 14.3253ZM5.082 11.5533C5.082 11.3695 5.00899 11.1932 4.87902 11.0633C4.74906 10.9333 4.57279 10.8603 4.389 10.8603L4.2042 10.8649C3.30139 10.9116 2.45256 11.3092 1.83883 11.9729C1.22511 12.6367 0.895089 13.514 0.919203 14.4177C0.943318 15.3214 1.31965 16.1799 1.96791 16.81C2.61616 17.4401 3.48499 17.7919 4.389 17.7903L4.48325 17.7838C4.65719 17.7599 4.81556 17.6708 4.92637 17.5346C5.03717 17.3984 5.09214 17.2252 5.08018 17.0501C5.06821 16.8749 4.99019 16.7108 4.8619 16.5909C4.7336 16.471 4.56458 16.4043 4.389 16.4043L4.2467 16.3997C3.70818 16.3637 3.20474 16.1198 2.84283 15.7194C2.48093 15.319 2.28891 14.7935 2.30739 14.2541C2.32587 13.7147 2.5534 13.2036 2.94186 12.8289C3.33033 12.4542 3.84928 12.2453 4.389 12.2463L4.48325 12.2398C4.64916 12.217 4.8012 12.135 4.91127 12.0088C5.02135 11.8826 5.08199 11.7208 5.082 11.5533ZM8.316 14.3253C8.316 14.1415 8.24299 13.9652 8.11302 13.8353C7.98306 13.7053 7.80679 13.6323 7.623 13.6323H4.389L4.29475 13.6388C4.12081 13.6627 3.96243 13.7518 3.85163 13.888C3.74083 14.0242 3.68586 14.1974 3.69782 14.3725C3.70979 14.5477 3.78781 14.7118 3.9161 14.8317C4.0444 14.9515 4.21342 15.0182 4.389 15.0183H7.623L7.71725 15.0118C7.88316 14.989 8.0352 14.907 8.14528 14.7808C8.25535 14.6546 8.31599 14.4928 8.316 14.3253Z" fill="#204FDC"/>
</svg>
