<svg width="15" height="16" viewBox="0 0 15 16" fill="none" xmlns="http://www.w3.org/2000/svg">
<path fill-rule="evenodd" clip-rule="evenodd" d="M2.54199 0.916992C1.97841 0.916992 1.43791 1.14088 1.03939 1.53939C0.640876 1.93791 0.416992 2.47841 0.416992 3.04199V12.9587C0.416992 13.5222 0.640876 14.0627 1.03939 14.4613C1.43791 14.8598 1.97841 15.0837 2.54199 15.0837H8.91699V11.542C8.91699 10.9784 9.14088 10.4379 9.53939 10.0394C9.93791 9.64088 10.4784 9.41699 11.042 9.41699H14.5837V3.04199C14.5837 2.47841 14.3598 1.93791 13.9613 1.53939C13.5627 1.14088 13.0222 0.916992 12.4587 0.916992H2.54199ZM11.2495 14.461C10.9949 14.7156 10.6798 14.9014 10.3337 15.0008V11.542C10.3337 11.3541 10.4083 11.174 10.5411 11.0411C10.674 10.9083 10.8541 10.8337 11.042 10.8337H14.5008C14.4014 11.1798 14.2156 11.4949 13.961 11.7495L11.2495 14.461ZM3.95866 3.75033C3.7708 3.75033 3.59063 3.82495 3.45779 3.95779C3.32495 4.09063 3.25033 4.2708 3.25033 4.45866C3.25033 4.64652 3.32495 4.82669 3.45779 4.95953C3.59063 5.09236 3.7708 5.16699 3.95866 5.16699H11.042C11.2299 5.16699 11.41 5.09236 11.5429 4.95953C11.6757 4.82669 11.7503 4.64652 11.7503 4.45866C11.7503 4.2708 11.6757 4.09063 11.5429 3.95779C11.41 3.82495 11.2299 3.75033 11.042 3.75033H3.95866ZM3.95866 6.58366C3.7708 6.58366 3.59063 6.65829 3.45779 6.79113C3.32495 6.92396 3.25033 7.10413 3.25033 7.29199C3.25033 7.47985 3.32495 7.66002 3.45779 7.79286C3.59063 7.9257 3.7708 8.00033 3.95866 8.00033H11.042C11.2299 8.00033 11.41 7.9257 11.5429 7.79286C11.6757 7.66002 11.7503 7.47985 11.7503 7.29199C11.7503 7.10413 11.6757 6.92396 11.5429 6.79113C11.41 6.65829 11.2299 6.58366 11.042 6.58366H3.95866ZM3.95866 9.41699C3.7708 9.41699 3.59063 9.49162 3.45779 9.62446C3.32495 9.7573 3.25033 9.93746 3.25033 10.1253C3.25033 10.3132 3.32495 10.4934 3.45779 10.6262C3.59063 10.759 3.7708 10.8337 3.95866 10.8337H6.79199C6.97985 10.8337 7.16002 10.759 7.29286 10.6262C7.4257 10.4934 7.50033 10.3132 7.50033 10.1253C7.50033 9.93746 7.4257 9.7573 7.29286 9.62446C7.16002 9.49162 6.97985 9.41699 6.79199 9.41699H3.95866Z" fill="#3557FF"/>
</svg>
