<svg width="11" height="16" viewBox="0 0 11 16" fill="none" xmlns="http://www.w3.org/2000/svg">
<path d="M5.50033 7.64616C5.03067 7.64616 4.58025 7.45959 4.24816 7.12749C3.91606 6.7954 3.72949 6.34498 3.72949 5.87533C3.72949 5.40567 3.91606 4.95525 4.24816 4.62316C4.58025 4.29106 5.03067 4.10449 5.50033 4.10449C5.96998 4.10449 6.4204 4.29106 6.75249 4.62316C7.08459 4.95525 7.27116 5.40567 7.27116 5.87533C7.27116 6.10787 7.22536 6.33815 7.13636 6.55299C7.04737 6.76784 6.91693 6.96306 6.75249 7.12749C6.58806 7.29193 6.39284 7.42237 6.17799 7.51136C5.96315 7.60036 5.73287 7.64616 5.50033 7.64616ZM5.50033 0.916992C4.18529 0.916992 2.92412 1.43939 1.99425 2.36925C1.06439 3.29912 0.541992 4.56029 0.541992 5.87533C0.541992 9.59408 5.50033 15.0837 5.50033 15.0837C5.50033 15.0837 10.4587 9.59408 10.4587 5.87533C10.4587 4.56029 9.93626 3.29912 9.0064 2.36925C8.07653 1.43939 6.81536 0.916992 5.50033 0.916992Z" fill="#3557FF"/>
</svg>
