<svg width="13" height="14" viewBox="0 0 13 14" fill="none" xmlns="http://www.w3.org/2000/svg">
<path d="M1.1875 13.375C1.1875 13.375 0.125 13.375 0.125 12.3125C0.125 11.25 1.1875 8.0625 6.5 8.0625C11.8125 8.0625 12.875 11.25 12.875 12.3125C12.875 13.375 11.8125 13.375 11.8125 13.375H1.1875ZM6.5 7C7.34538 7 8.15613 6.66418 8.7539 6.0664C9.35168 5.46863 9.6875 4.65788 9.6875 3.8125C9.6875 2.96712 9.35168 2.15637 8.7539 1.5586C8.15613 0.960825 7.34538 0.625 6.5 0.625C5.65462 0.625 4.84387 0.960825 4.2461 1.5586C3.64832 2.15637 3.3125 2.96712 3.3125 3.8125C3.3125 4.65788 3.64832 5.46863 4.2461 6.0664C4.84387 6.66418 5.65462 7 6.5 7Z" fill="#3557FF"/>
</svg>
