<svg width="39" height="33" viewBox="0 0 39 33" fill="none" xmlns="http://www.w3.org/2000/svg">
<path d="M34.6252 23.6672V13.0963L20.2023 20.9349C19.6648 21.2335 19.0974 21.3828 18.5002 21.3828C17.903 21.3828 17.3356 21.2335 16.7981 20.9349L1.65854 12.6932C1.33007 12.514 1.09835 12.2901 0.963378 12.0213C0.828405 11.7526 0.761517 11.454 0.762711 11.1255C0.763905 10.797 0.831392 10.4984 0.96517 10.2297C1.09895 9.9609 1.33007 9.73694 1.65854 9.55778L16.7981 1.31611C17.0669 1.1668 17.3434 1.05453 17.6277 0.979275C17.9119 0.904025 18.2028 0.866998 18.5002 0.868192C18.7976 0.869387 19.0891 0.907011 19.3745 0.981067C19.66 1.05512 19.9359 1.1668 20.2023 1.31611L37.2679 10.6328C37.5665 10.7821 37.7983 10.9989 37.9631 11.2832C38.1279 11.5674 38.2097 11.8732 38.2085 12.2005V23.6672C38.2085 24.1748 38.0365 24.6006 37.6925 24.9446C37.3485 25.2886 36.9233 25.46 36.4169 25.4588C35.9104 25.4576 35.4852 25.2856 35.1412 24.9428C34.7972 24.6 34.6252 24.1748 34.6252 23.6672ZM16.7981 31.6849L7.83979 26.8474C7.24257 26.5189 6.77973 26.071 6.45125 25.5036C6.12278 24.9362 5.95854 24.3241 5.95854 23.6672V16.8588L16.7981 22.7265C17.3356 23.0251 17.903 23.1744 18.5002 23.1744C19.0974 23.1744 19.6648 23.0251 20.2023 22.7265L31.0419 16.8588V23.6672C31.0419 24.3241 30.8776 24.9362 30.5492 25.5036C30.2207 26.071 29.7579 26.5189 29.1606 26.8474L20.2023 31.6849C19.9335 31.8342 19.6576 31.9464 19.3745 32.0217C19.0915 32.0969 18.8 32.134 18.5002 32.1328C18.2004 32.1316 17.909 32.0946 17.6259 32.0217C17.3428 31.9488 17.0669 31.8366 16.7981 31.6849Z" fill="#0FBEB3"/>
</svg>
