<svg width="33" height="33" viewBox="0 0 33 33" fill="none" xmlns="http://www.w3.org/2000/svg">
<path fill-rule="evenodd" clip-rule="evenodd" d="M29.9375 6.64583C29.2247 6.64583 28.5412 6.92898 28.0372 7.43298C27.5331 7.93699 27.25 8.62056 27.25 9.33333V11.125H32.625V9.33333C32.625 8.62056 32.3419 7.93699 31.8378 7.43298C31.3338 6.92898 30.6503 6.64583 29.9375 6.64583ZM32.625 12.9167H27.25V27.6979L29.9375 31.7292L32.625 27.6979V12.9167ZM0.375 3.0625V29.9375C0.375 30.6503 0.658147 31.3338 1.16215 31.8378C1.66615 32.3419 2.34973 32.625 3.0625 32.625H22.7708C23.4836 32.625 24.1672 32.3419 24.6712 31.8378C25.1752 31.3338 25.4583 30.6503 25.4583 29.9375V3.0625C25.4583 2.34973 25.1752 1.66615 24.6712 1.16215C24.1672 0.658147 23.4836 0.375 22.7708 0.375H3.0625C2.34973 0.375 1.66615 0.658147 1.16215 1.16215C0.658147 1.66615 0.375 2.34973 0.375 3.0625ZM12.9167 8.4375C12.9167 8.19991 13.011 7.97205 13.179 7.80405C13.3471 7.63605 13.5749 7.54167 13.8125 7.54167H20.9792C21.2168 7.54167 21.4446 7.63605 21.6126 7.80405C21.7806 7.97205 21.875 8.19991 21.875 8.4375C21.875 8.67509 21.7806 8.90295 21.6126 9.07095C21.4446 9.23895 21.2168 9.33333 20.9792 9.33333H13.8125C13.5749 9.33333 13.3471 9.23895 13.179 9.07095C13.011 8.90295 12.9167 8.67509 12.9167 8.4375ZM13.8125 11.125C13.5749 11.125 13.3471 11.2194 13.179 11.3874C13.011 11.5554 12.9167 11.7832 12.9167 12.0208C12.9167 12.2584 13.011 12.4863 13.179 12.6543C13.3471 12.8223 13.5749 12.9167 13.8125 12.9167H20.9792C21.2168 12.9167 21.4446 12.8223 21.6126 12.6543C21.7806 12.4863 21.875 12.2584 21.875 12.0208C21.875 11.7832 21.7806 11.5554 21.6126 11.3874C21.4446 11.2194 21.2168 11.125 20.9792 11.125H13.8125ZM12.9167 20.0833C12.9167 19.8457 13.011 19.6179 13.179 19.4499C13.3471 19.2819 13.5749 19.1875 13.8125 19.1875H20.9792C21.2168 19.1875 21.4446 19.2819 21.6126 19.4499C21.7806 19.6179 21.875 19.8457 21.875 20.0833C21.875 20.3209 21.7806 20.5488 21.6126 20.7168C21.4446 20.8848 21.2168 20.9792 20.9792 20.9792H13.8125C13.5749 20.9792 13.3471 20.8848 13.179 20.7168C13.011 20.5488 12.9167 20.3209 12.9167 20.0833ZM13.8125 22.7708C13.5749 22.7708 13.3471 22.8652 13.179 23.0332C13.011 23.2012 12.9167 23.4291 12.9167 23.6667C12.9167 23.9043 13.011 24.1321 13.179 24.3001C13.3471 24.4681 13.5749 24.5625 13.8125 24.5625H20.9792C21.2168 24.5625 21.4446 24.4681 21.6126 24.3001C21.7806 24.1321 21.875 23.9043 21.875 23.6667C21.875 23.4291 21.7806 23.2012 21.6126 23.0332C21.4446 22.8652 21.2168 22.7708 20.9792 22.7708H13.8125ZM5.75 20.0833V22.7708H8.4375V20.0833H5.75ZM4.85417 18.2917H9.33333C9.57092 18.2917 9.79878 18.386 9.96678 18.554C10.1348 18.722 10.2292 18.9499 10.2292 19.1875V23.6667C10.2292 23.9043 10.1348 24.1321 9.96678 24.3001C9.79878 24.4681 9.57092 24.5625 9.33333 24.5625H4.85417C4.61658 24.5625 4.38872 24.4681 4.22072 24.3001C4.05272 24.1321 3.95833 23.9043 3.95833 23.6667V19.1875C3.95833 18.9499 4.05272 18.722 4.22072 18.554C4.38872 18.386 4.61658 18.2917 4.85417 18.2917ZM10.8625 9.07085C11.0257 8.9019 11.116 8.67561 11.114 8.44072C11.1119 8.20584 11.0177 7.98115 10.8516 7.81506C10.6855 7.64896 10.4608 7.55475 10.2259 7.55271C9.99106 7.55067 9.76477 7.64096 9.59581 7.80415L6.64583 10.7541L5.48752 9.59581C5.31856 9.43263 5.09228 9.34233 4.85739 9.34437C4.62251 9.34642 4.39782 9.44063 4.23172 9.60672C4.06563 9.77282 3.97142 9.99751 3.96938 10.2324C3.96733 10.4673 4.05763 10.6936 4.22081 10.8625L6.64583 13.2875L10.8625 9.07085Z" fill="#65558F"/>
</svg>
