<svg width="36" height="37" viewBox="0 0 36 37" fill="none" xmlns="http://www.w3.org/2000/svg">
<path fill-rule="evenodd" clip-rule="evenodd" d="M7.74967 9.54134C7.74967 7.16544 8.6935 4.88686 10.3735 3.20684C12.0535 1.52683 14.3321 0.583008 16.708 0.583008C19.0839 0.583008 21.3625 1.52683 23.0425 3.20684C24.7225 4.88686 25.6663 7.16544 25.6663 9.54134C25.6663 11.9172 24.7225 14.1958 23.0425 15.8758C21.3625 17.5559 19.0839 18.4997 16.708 18.4997C14.3321 18.4997 12.0535 17.5559 10.3735 15.8758C8.6935 14.1958 7.74967 11.9172 7.74967 9.54134ZM5.63909 23.287C8.51113 21.5348 12.417 20.2913 16.708 20.2913C17.5095 20.2913 18.2954 20.3331 19.0658 20.4168C19.3736 20.4498 19.6676 20.5619 19.9191 20.7424C20.1706 20.9228 20.371 21.1653 20.501 21.4462C20.6309 21.7271 20.6858 22.0369 20.6604 22.3454C20.6349 22.6539 20.53 22.9505 20.3558 23.2064C19.1423 24.9878 18.4954 27.0942 18.4997 29.2497C18.4997 30.898 18.8705 32.4568 19.5299 33.8489C19.6583 34.1201 19.7166 34.4192 19.6994 34.7188C19.6822 35.0184 19.5899 35.3089 19.4312 35.5636C19.2725 35.8182 19.0523 36.029 18.791 36.1764C18.5296 36.3238 18.2354 36.4033 17.9353 36.4074C17.5292 36.4134 17.1201 36.4163 16.708 36.4163C12.7144 36.4163 8.94113 36.1655 6.11388 35.4166C4.70742 35.0439 3.38338 34.51 2.38005 33.7038C1.31759 32.8509 0.583008 31.6595 0.583008 30.1455C0.583008 28.7355 1.22442 27.4168 2.09517 26.3131C2.98026 25.1933 4.20397 24.1631 5.63909 23.2852V23.287ZM28.3538 25.6663C27.6411 25.6663 26.9575 25.9495 26.4535 26.4535C25.9495 26.9575 25.6663 27.6411 25.6663 28.3538C25.6663 29.0666 25.9495 29.7502 26.4535 30.2542C26.9575 30.7582 27.6411 31.0413 28.3538 31.0413C29.0666 31.0413 29.7502 30.7582 30.2542 30.2542C30.7582 29.7502 31.0413 29.0666 31.0413 28.3538C31.0413 27.6411 30.7582 26.9575 30.2542 26.4535C29.7502 25.9495 29.0666 25.6663 28.3538 25.6663ZM22.083 28.3538C22.0837 27.3998 22.3021 26.4584 22.7216 25.6015C23.1411 24.7446 23.7505 23.9946 24.5036 23.4088C25.2567 22.823 26.1335 22.4168 27.0673 22.2211C28.0011 22.0253 28.9672 22.0452 29.8921 22.2793C30.8171 22.5133 31.6764 22.9553 32.4047 23.5716C33.133 24.188 33.7111 24.9623 34.0949 25.8358C34.4787 26.7093 34.6581 27.6588 34.6195 28.6121C34.5809 29.5654 34.3253 30.4974 33.8722 31.337L35.3664 32.833C35.5375 32.9983 35.674 33.196 35.7679 33.4146C35.8618 33.6332 35.9113 33.8683 35.9133 34.1062C35.9154 34.3441 35.8701 34.58 35.78 34.8002C35.6899 35.0204 35.5569 35.2204 35.3886 35.3886C35.2204 35.5569 35.0204 35.6899 34.8002 35.78C34.58 35.8701 34.3441 35.9154 34.1062 35.9133C33.8683 35.9113 33.6332 35.8618 33.4146 35.7679C33.196 35.674 32.9983 35.5375 32.833 35.3664L31.337 33.8704C30.3817 34.387 29.3086 34.6467 28.2228 34.624C27.137 34.6013 26.0757 34.297 25.1429 33.7409C24.21 33.1848 23.4376 32.396 22.9012 31.4517C22.3648 30.5073 22.0829 29.4399 22.083 28.3538Z" fill="#EEAA16"/>
</svg>
