<svg width="38" height="27" viewBox="0 0 38 27" fill="none" xmlns="http://www.w3.org/2000/svg">
<path d="M21.1983 19.1777H18.1309V26.5475H21.1983V19.1777Z" fill="#FFC107"/>
<path d="M8.86421 16.8097L9.49934 19.1826C9.58731 19.5112 9.37479 19.7756 9.02299 19.7758L7.11754 19.7757C6.76574 19.776 6.41158 19.5111 6.32362 19.1825L5.68848 16.8096" stroke="#D22E2E" stroke-linecap="round" stroke-linejoin="round"/>
<path d="M3.75807 15.5302L1.3877 16.166L2.18162 19.1321L4.55199 18.4963L3.75807 15.5302Z" fill="#D22E2E"/>
<path d="M3.75722 15.5302L10.8258 11.0908L12.89 18.8028L4.55114 18.4963L3.75722 15.5302Z" fill="#E9EDED"/>
<path d="M12.0119 10.7704C11.9242 10.4428 11.5878 10.2484 11.2606 10.3362C10.9333 10.424 10.7391 10.7607 10.8268 11.0883L12.891 18.8003C12.9787 19.1279 13.3151 19.3224 13.6423 19.2346C13.9696 19.1468 14.1638 18.81 14.0761 18.4824L12.0119 10.7704Z" fill="#D22E2E"/>
<path d="M3.75722 15.5302L10.8258 11.0908L10.9846 11.684L3.916 16.1234L3.75722 15.5302Z" fill="#B0BEC5"/>
<path d="M3.75807 15.5302L1.3877 16.166L1.54648 16.7592L3.91685 16.1234L3.75807 15.5302Z" fill="#D22E2E"/>
<path d="M3.16429 15.6894C3.0766 15.3618 2.74018 15.1673 2.41291 15.2551C2.08563 15.3429 1.89141 15.6797 1.97911 16.0073L4.67845 26.0921C4.76614 26.4198 5.10254 26.6142 5.42982 26.5264C5.7571 26.4386 5.95133 26.1019 5.86363 25.7742L3.16429 15.6894Z" fill="#E9EDED"/>
<path d="M0.952718 16.9158L1.54531 16.7569L1.86288 17.9433L1.27029 18.1023L0.952718 16.9158ZM11.2593 10.3363C10.931 10.4244 10.7375 10.7599 10.8254 11.0885L11.143 12.2749C11.0551 11.9463 11.2485 11.6108 11.5768 11.5228C11.9051 11.4347 12.2402 11.6284 12.3282 11.957L12.0106 10.7706C11.9227 10.4419 11.5876 10.2483 11.2593 10.3363Z" fill="#D22E2E"/>
<path d="M2.41291 15.2551C2.08461 15.3432 1.89113 15.6786 1.9791 16.0073L2.13788 16.6005C2.04992 16.2719 2.24339 15.9364 2.57169 15.8483C2.89999 15.7603 3.2351 15.954 3.32307 16.2826L3.16428 15.6894C3.07632 15.3607 2.7412 15.167 2.41291 15.2551Z" fill="#B0BEC5"/>
<path d="M14.2541 13.9833L16.4688 13.3894M14.4976 15.1865L16.5933 15.8989M13.8633 12.8164L15.3234 11.1533" stroke="#455A64" stroke-linecap="round" stroke-linejoin="round"/>
<path d="M26.1065 14.8779H23.0391V26.5468H26.1065V14.8779Z" fill="#FF9800"/>
<path d="M31.0148 9.96582H27.9473V26.5479H31.0148V9.96582Z" fill="#3557FF"/>
<path d="M35.922 4.4375H32.8545V26.547H35.922V4.4375Z" fill="#4CAF50"/>
<path d="M10.7686 26.2402H37.7624" stroke="#0277BD"/>
<path d="M18.1309 17.0297H20.8916V12.7306H25.7996V7.8174H30.7075V2.29004H35.9836" stroke="#3557FF"/>
<path d="M34.9131 1L36.2137 2.30263L34.9131 3.60583" stroke="#3557FF"/>
</svg>
