<svg width="12" height="14" viewBox="0 0 12 14" fill="none" xmlns="http://www.w3.org/2000/svg">
<path fill-rule="evenodd" clip-rule="evenodd" d="M3.33333 1.66634H8.66667V0.333008H10V1.66634H10.6667C11.0203 1.66634 11.3594 1.80682 11.6095 2.05687C11.8595 2.30691 12 2.64605 12 2.99967V12.333C12 12.6866 11.8595 13.0258 11.6095 13.2758C11.3594 13.5259 11.0203 13.6663 10.6667 13.6663H1.33333C0.979711 13.6663 0.640573 13.5259 0.390524 13.2758C0.140476 13.0258 0 12.6866 0 12.333V2.99967C0 2.64605 0.140476 2.30691 0.390524 2.05687C0.640573 1.80682 0.979711 1.66634 1.33333 1.66634H2V0.333008H3.33333V1.66634ZM1.33333 4.33301V12.333H10.6667V4.33301H1.33333ZM2.66667 6.33301H4V7.66634H2.66667V6.33301ZM5.33333 6.33301H6.66667V7.66634H5.33333V6.33301ZM8 6.33301H9.33333V7.66634H8V6.33301ZM8 8.99967H9.33333V10.333H8V8.99967ZM5.33333 8.99967H6.66667V10.333H5.33333V8.99967ZM2.66667 8.99967H4V10.333H2.66667V8.99967Z" fill="black"/>
</svg>
