<svg width="21" height="16" viewBox="0 0 21 16" fill="none" xmlns="http://www.w3.org/2000/svg">
<path d="M18.2501 11.6666V6.25822L10.8709 10.2686C10.5959 10.4214 10.3056 10.4978 10.0001 10.4978C9.6945 10.4978 9.40422 10.4214 9.12922 10.2686L1.38339 6.05197C1.21533 5.9603 1.09678 5.84572 1.02772 5.70822C0.958668 5.57072 0.924446 5.41794 0.925057 5.24988C0.925668 5.08183 0.960196 4.92905 1.02864 4.79155C1.09708 4.65405 1.21533 4.53947 1.38339 4.4478L9.12922 0.231134C9.26672 0.154745 9.4082 0.0973006 9.55364 0.0588006C9.69908 0.0203006 9.84789 0.00135634 10.0001 0.00196745C10.1522 0.00257856 10.3013 0.0218285 10.4474 0.0597174C10.5934 0.0976063 10.7346 0.154745 10.8709 0.231134L19.6021 4.9978C19.7549 5.07419 19.8735 5.18511 19.9578 5.33055C20.0421 5.476 20.084 5.63244 20.0834 5.79988V11.6666C20.0834 11.9263 19.9954 12.1441 19.8194 12.3201C19.6434 12.4961 19.4258 12.5838 19.1667 12.5832C18.9076 12.5826 18.6901 12.4946 18.5141 12.3192C18.3381 12.1438 18.2501 11.9263 18.2501 11.6666ZM9.12922 15.7686L4.54589 13.2936C4.24033 13.1256 4.00353 12.8964 3.83547 12.6061C3.66742 12.3159 3.58339 12.0027 3.58339 11.6666V8.18322L9.12922 11.1853C9.40422 11.3381 9.6945 11.4145 10.0001 11.4145C10.3056 11.4145 10.5959 11.3381 10.8709 11.1853L16.4167 8.18322V11.6666C16.4167 12.0027 16.3327 12.3159 16.1646 12.6061C15.9966 12.8964 15.7598 13.1256 15.4542 13.2936L10.8709 15.7686C10.7334 15.845 10.5922 15.9025 10.4474 15.941C10.3026 15.9795 10.1534 15.9984 10.0001 15.9978C9.84667 15.9972 9.69756 15.9782 9.55272 15.941C9.40789 15.9037 9.26672 15.8462 9.12922 15.7686Z" fill="#5D79FF"/>
</svg>
