<svg width="14" height="14" viewBox="0 0 14 14" fill="none" xmlns="http://www.w3.org/2000/svg">
<path d="M12.4997 7.91439H7.91634V12.4977C7.91634 12.7408 7.81976 12.974 7.64786 13.1459C7.47595 13.3178 7.24279 13.4144 6.99967 13.4144C6.75656 13.4144 6.5234 13.3178 6.35149 13.1459C6.17958 12.974 6.08301 12.7408 6.08301 12.4977V7.91439H1.49967C1.25656 7.91439 1.0234 7.81781 0.851493 7.6459C0.679585 7.47399 0.583008 7.24084 0.583008 6.99772C0.583008 6.75461 0.679585 6.52145 0.851493 6.34954C1.0234 6.17763 1.25656 6.08105 1.49967 6.08105H6.08301V1.49772C6.08301 1.25461 6.17958 1.02145 6.35149 0.84954C6.5234 0.677632 6.75656 0.581055 6.99967 0.581055C7.24279 0.581055 7.47595 0.677632 7.64786 0.84954C7.81976 1.02145 7.91634 1.25461 7.91634 1.49772V6.08105H12.4997C12.7428 6.08105 12.9759 6.17763 13.1479 6.34954C13.3198 6.52145 13.4163 6.75461 13.4163 6.99772C13.4163 7.24084 13.3198 7.47399 13.1479 7.6459C12.9759 7.81781 12.7428 7.91439 12.4997 7.91439Z" fill="#FAFAFA"/>
</svg>
