<svg width="3" height="11" viewBox="0 0 3 11" fill="none" xmlns="http://www.w3.org/2000/svg">
<path d="M1.49995 10.8337C1.11861 10.8337 0.79217 10.7031 0.520615 10.442C0.249059 10.1809 0.113281 9.86699 0.113281 9.50033C0.113281 9.13366 0.249059 8.81977 0.520615 8.55866C0.79217 8.29755 1.11861 8.16699 1.49995 8.16699C1.88128 8.16699 2.20773 8.29755 2.47928 8.55866C2.75084 8.81977 2.88661 9.13366 2.88661 9.50033C2.88661 9.86699 2.75084 10.1809 2.47928 10.442C2.20773 10.7031 1.88128 10.8337 1.49995 10.8337ZM1.49995 6.83366C1.11861 6.83366 0.79217 6.7031 0.520615 6.44199C0.249059 6.18088 0.113281 5.86699 0.113281 5.50033C0.113281 5.13366 0.249059 4.81977 0.520615 4.55866C0.79217 4.29755 1.11861 4.16699 1.49995 4.16699C1.88128 4.16699 2.20773 4.29755 2.47928 4.55866C2.75084 4.81977 2.88661 5.13366 2.88661 5.50033C2.88661 5.86699 2.75084 6.18088 2.47928 6.44199C2.20773 6.7031 1.88128 6.83366 1.49995 6.83366ZM1.49995 2.83366C1.11861 2.83366 0.79217 2.7031 0.520615 2.44199C0.249059 2.18088 0.113281 1.86699 0.113281 1.50033C0.113281 1.13366 0.249059 0.81977 0.520615 0.558659C0.79217 0.297548 1.11861 0.166992 1.49995 0.166992C1.88128 0.166992 2.20773 0.297548 2.47928 0.558659C2.75084 0.81977 2.88661 1.13366 2.88661 1.50033C2.88661 1.86699 2.75084 2.18088 2.47928 2.44199C2.20773 2.7031 1.88128 2.83366 1.49995 2.83366Z" fill="#433E3F"/>
</svg>
