<svg width="13" height="13" viewBox="0 0 13 13" fill="none" xmlns="http://www.w3.org/2000/svg">
<path fill-rule="evenodd" clip-rule="evenodd" d="M4.79772 0.22713C6.07601 -0.119966 7.42983 -0.0682349 8.67792 0.375397C9.926 0.819028 11.0088 1.63338 11.7812 2.70943V1.42156C11.7812 1.25993 11.8454 1.10493 11.9597 0.990646C12.074 0.876361 12.229 0.812156 12.3906 0.812156C12.5522 0.812156 12.7072 0.876361 12.8215 0.990646C12.9358 1.10493 13 1.25993 13 1.42156V4.87483H9.54683C9.38522 4.87483 9.23022 4.81063 9.11594 4.69634C9.00166 4.58206 8.93745 4.42706 8.93745 4.26543C8.93745 4.10381 9.00166 3.94881 9.11594 3.83452C9.23022 3.72024 9.38522 3.65603 9.54683 3.65603H10.95C10.3136 2.66026 9.36153 1.90673 8.24622 1.516C7.13091 1.12527 5.91678 1.11991 4.79806 1.50078C3.67934 1.88165 2.72068 2.62674 2.07545 3.61685C1.43022 4.60696 1.1357 5.78488 1.23901 6.96217C1.34232 8.13945 1.83748 9.24807 2.64529 10.1107C3.4531 10.9733 4.52687 11.54 5.69483 11.7202C6.86278 11.9004 8.05742 11.6836 9.08764 11.1046C10.1179 10.5256 10.9241 9.61778 11.3774 8.52637C11.4068 8.4507 11.4511 8.38168 11.5076 8.32335C11.564 8.26502 11.6316 8.21857 11.7063 8.18671C11.7809 8.15486 11.8612 8.13825 11.9424 8.13785C12.0236 8.13746 12.104 8.15329 12.179 8.18442C12.254 8.21555 12.322 8.26135 12.379 8.31913C12.4361 8.37691 12.481 8.4455 12.5111 8.52088C12.5413 8.59626 12.5561 8.6769 12.5546 8.75808C12.5532 8.83925 12.5356 8.91932 12.5027 8.99358C12.0793 10.0129 11.4032 10.9077 10.5383 11.5934C9.67332 12.2792 8.64801 12.7333 7.55897 12.9132C6.46992 13.093 5.35303 12.9925 4.31356 12.6212C3.2741 12.2499 2.34631 11.62 1.61764 10.7909C0.888981 9.96175 0.383449 8.96073 0.148702 7.88216C-0.0860455 6.80359 -0.0422746 5.683 0.275888 4.62603C0.594051 3.56906 1.17612 2.61052 1.96724 1.84077C2.75836 1.07101 3.73246 0.51622 4.79772 0.22713Z" fill="#2B2829"/>
</svg>
