<svg width="13" height="14" viewBox="0 0 13 14" fill="none" xmlns="http://www.w3.org/2000/svg">
<path d="M11.9997 7.91439H7.41634V12.4977C7.41634 12.7408 7.31976 12.974 7.14786 13.1459C6.97595 13.3178 6.74279 13.4144 6.49967 13.4144C6.25656 13.4144 6.0234 13.3178 5.85149 13.1459C5.67958 12.974 5.58301 12.7408 5.58301 12.4977V7.91439H0.999674C0.756559 7.91439 0.523402 7.81781 0.351493 7.6459C0.179585 7.47399 0.0830078 7.24084 0.0830078 6.99772C0.0830078 6.75461 0.179585 6.52145 0.351493 6.34954C0.523402 6.17763 0.756559 6.08105 0.999674 6.08105H5.58301V1.49772C5.58301 1.25461 5.67958 1.02145 5.85149 0.84954C6.0234 0.677632 6.25656 0.581055 6.49967 0.581055C6.74279 0.581055 6.97595 0.677632 7.14786 0.84954C7.31976 1.02145 7.41634 1.25461 7.41634 1.49772V6.08105H11.9997C12.2428 6.08105 12.4759 6.17763 12.6479 6.34954C12.8198 6.52145 12.9163 6.75461 12.9163 6.99772C12.9163 7.24084 12.8198 7.47399 12.6479 7.6459C12.4759 7.81781 12.2428 7.91439 11.9997 7.91439Z" fill="#1857C0"/>
</svg>
