<svg width="17" height="13" viewBox="0 0 17 13" fill="none" xmlns="http://www.w3.org/2000/svg">
<path d="M9.91634 4.83783V3.49199C10.3059 3.30727 10.7045 3.16873 11.112 3.07637C11.5195 2.98401 11.9474 2.93783 12.3955 2.93783C12.7025 2.93783 13.0035 2.96422 13.2986 3.01699C13.5938 3.06977 13.883 3.13574 14.1663 3.21491V4.48158C13.883 4.36283 13.5966 4.2739 13.3071 4.21479C13.0177 4.15568 12.7138 4.12586 12.3955 4.12533C11.9469 4.12533 11.516 4.18813 11.1028 4.31375C10.6896 4.43936 10.2941 4.61405 9.91634 4.83783ZM9.91634 9.19199V7.84616C10.3059 7.66144 10.7045 7.5229 11.112 7.43054C11.5195 7.33818 11.9474 7.29199 12.3955 7.29199C12.7025 7.29199 13.0035 7.31838 13.2986 7.37116C13.5938 7.42394 13.883 7.48991 14.1663 7.56908V8.83574C13.883 8.71699 13.5966 8.6278 13.3071 8.56816C13.0177 8.50852 12.7138 8.47897 12.3955 8.4795C11.9469 8.4795 11.516 8.53887 11.1028 8.65762C10.6896 8.77637 10.2941 8.95449 9.91634 9.19199ZM9.91634 7.01491V5.66908C10.3059 5.48436 10.7045 5.34581 11.112 5.25345C11.5195 5.16109 11.9474 5.11491 12.3955 5.11491C12.7025 5.11491 13.0035 5.1413 13.2986 5.19408C13.5938 5.24686 13.883 5.31283 14.1663 5.392V6.65866C13.883 6.53991 13.5966 6.45072 13.3071 6.39108C13.0177 6.33144 12.7138 6.30188 12.3955 6.30241C11.9469 6.30241 11.516 6.36522 11.1028 6.49083C10.6896 6.61644 10.2941 6.79113 9.91634 7.01491ZM9.20801 10.4982C9.72745 10.2212 10.25 10.0132 10.7755 9.87441C11.3011 9.73561 11.8411 9.66647 12.3955 9.667C12.8205 9.667 13.2368 9.70658 13.6443 9.78574C14.0518 9.86491 14.462 9.98366 14.8747 10.142V2.30449C14.4851 2.11977 14.0806 1.98123 13.6613 1.88887C13.242 1.79651 12.82 1.75033 12.3955 1.75033C11.8406 1.75033 11.2917 1.82949 10.7486 1.98783C10.2056 2.14616 9.69204 2.38366 9.20801 2.70033V10.4982ZM8.49967 12.8337C7.93301 12.3323 7.31912 11.943 6.65801 11.666C5.9969 11.3889 5.31217 11.2503 4.60384 11.2503C4.10801 11.2503 3.62115 11.3229 3.14326 11.468C2.66537 11.6132 2.20779 11.8177 1.77051 12.0816C1.52259 12.2267 1.28365 12.2201 1.05367 12.0618C0.823702 11.9035 0.70848 11.6726 0.708008 11.3691V1.82949C0.708008 1.68436 0.740591 1.54581 0.805758 1.41387C0.870924 1.28193 0.968202 1.18297 1.09759 1.11699C1.65245 0.813522 2.22219 0.579189 2.8068 0.413995C3.39141 0.2488 3.99042 0.166467 4.60384 0.166995C5.28856 0.166995 5.95865 0.265953 6.61409 0.46387C7.26954 0.661786 7.89806 0.958661 8.49967 1.35449C9.10176 0.958661 9.73052 0.661786 10.386 0.46387C11.0414 0.265953 11.7113 0.166995 12.3955 0.166995C13.0094 0.166995 13.6086 0.249592 14.1933 0.414787C14.7779 0.579981 15.3474 0.81405 15.9018 1.11699C16.0316 1.18297 16.1291 1.28193 16.1943 1.41387C16.2595 1.54581 16.2918 1.68436 16.2913 1.82949V11.3691C16.2913 11.6726 16.1764 11.9035 15.9464 12.0618C15.7164 12.2201 15.4772 12.2267 15.2288 12.0816C14.792 11.8177 14.3347 11.6132 13.8568 11.468C13.3789 11.3229 12.8918 11.2503 12.3955 11.2503C11.6872 11.2503 11.0025 11.3889 10.3413 11.666C9.68023 11.943 9.06634 12.3323 8.49967 12.8337Z" fill="#3557FF"/>
</svg>
