<svg width="16" height="15" viewBox="0 0 16 15" fill="none" xmlns="http://www.w3.org/2000/svg">
<path d="M4.5 7.5L7.5 10L11.5 5M8 14.5C7.08075 14.5 6.1705 14.3189 5.32122 13.9672C4.47194 13.6154 3.70026 13.0998 3.05025 12.4497C2.40024 11.7997 1.88463 11.0281 1.53284 10.1788C1.18106 9.32951 1 8.41925 1 7.5C1 6.58075 1.18106 5.6705 1.53284 4.82122C1.88463 3.97194 2.40024 3.20026 3.05025 2.55025C3.70026 1.90024 4.47194 1.38463 5.32122 1.03284C6.1705 0.68106 7.08075 0.5 8 0.5C9.85652 0.5 11.637 1.2375 12.9497 2.55025C14.2625 3.86301 15 5.64348 15 7.5C15 9.35652 14.2625 11.137 12.9497 12.4497C11.637 13.7625 9.85652 14.5 8 14.5Z" stroke="white"/>
</svg>
