<svg width="15" height="15" viewBox="0 0 15 15" fill="none" xmlns="http://www.w3.org/2000/svg">
<path d="M6.73605 2.20988C6.85184 2.19335 6.96324 2.15417 7.06389 2.09459C7.16454 2.03501 7.25247 1.95618 7.32266 1.86262C7.39284 1.76906 7.44391 1.66259 7.47295 1.54928C7.50199 1.43598 7.50843 1.31807 7.4919 1.20228C7.47537 1.08649 7.43619 0.975095 7.37661 0.874446C7.31703 0.773797 7.2382 0.685869 7.14464 0.615682C7.05108 0.545496 6.94461 0.494425 6.8313 0.465386C6.718 0.436348 6.60009 0.42991 6.4843 0.44644C5.17516 0.634812 3.94427 1.1838 2.9294 2.03197C1.91453 2.88013 1.15573 3.994 0.737932 5.24891C0.320131 6.50381 0.259814 7.85023 0.563733 9.13747C0.867652 10.4247 1.52381 11.602 2.45878 12.5375C3.39374 13.473 4.57061 14.1298 5.85767 14.4345C7.14472 14.7392 8.49118 14.6797 9.74633 14.2626C11.0015 13.8455 12.1158 13.0874 12.9646 12.073C13.8133 11.0587 14.363 9.8281 14.5522 8.51906C14.5856 8.28522 14.5247 8.04769 14.3829 7.85873C14.2412 7.66977 14.0302 7.54485 13.7963 7.51147C13.5625 7.47809 13.325 7.53896 13.136 7.68071C12.947 7.82246 12.8221 8.03347 12.7887 8.26731C12.6466 9.24896 12.2341 10.1717 11.5974 10.9322C10.9607 11.6928 10.1249 12.2612 9.18359 12.5738C8.24226 12.8864 7.23251 12.9309 6.26733 12.7024C5.30214 12.4738 4.41959 11.9812 3.71843 11.2796C3.01727 10.578 2.52516 9.69519 2.29717 8.72987C2.06917 7.76455 2.11428 6.75483 2.42746 5.81368C2.74063 4.87254 3.30951 4.0371 4.07044 3.40086C4.83137 2.76461 5.75433 2.35146 6.73605 2.20988ZM9.87462 0.780127C9.65179 0.701391 9.40682 0.714396 9.19358 0.816281C8.98035 0.918166 8.81632 1.10059 8.73759 1.32341C8.65885 1.54623 8.67185 1.79121 8.77374 2.00444C8.87562 2.21768 9.05804 2.3817 9.28087 2.46044C9.63949 2.58711 9.97832 2.74861 10.2974 2.94494C10.397 3.00982 10.5086 3.05411 10.6256 3.07519C10.7426 3.09627 10.8626 3.09371 10.9786 3.06767C11.0946 3.04163 11.2042 2.99263 11.3009 2.92356C11.3977 2.85449 11.4796 2.76675 11.5419 2.66551C11.6043 2.56428 11.6457 2.45159 11.6637 2.33409C11.6818 2.2166 11.6762 2.09667 11.6472 1.98139C11.6182 1.8661 11.5664 1.75779 11.4949 1.66283C11.4233 1.56788 11.3335 1.4882 11.2307 1.4285C10.8028 1.16517 10.3483 0.947831 9.87462 0.780127ZM13.5737 3.77263C13.514 3.66983 13.4343 3.58002 13.3393 3.5085C13.2444 3.43697 13.1361 3.38519 13.0208 3.35618C12.9055 3.32718 12.7856 3.32155 12.6681 3.33963C12.5506 3.3577 12.4379 3.39912 12.3367 3.46143C12.2354 3.52374 12.1477 3.60569 12.0786 3.70245C12.0096 3.7992 11.9606 3.9088 11.9345 4.02479C11.9085 4.14078 11.9059 4.26081 11.927 4.37781C11.9481 4.4948 11.9924 4.60639 12.0572 4.706C12.2528 5.02267 12.4135 5.35913 12.5394 5.71538C12.6209 5.93438 12.7852 6.11259 12.9969 6.21155C13.2086 6.31052 13.4507 6.32232 13.671 6.24442C13.8913 6.16652 14.0722 6.00515 14.1746 5.79511C14.277 5.58507 14.2928 5.34319 14.2185 5.12163C14.0515 4.65059 13.8353 4.19843 13.5737 3.77263ZM7.49962 4.82831C7.49962 4.59211 7.40578 4.36557 7.23876 4.19855C7.07173 4.03152 6.8452 3.93769 6.60899 3.93769C6.37278 3.93769 6.14625 4.03152 5.97922 4.19855C5.8122 4.36557 5.71837 4.59211 5.71837 4.82831V8.39081C5.71837 8.88244 6.11737 9.28144 6.60899 9.28144H8.98399C9.2202 9.28144 9.44673 9.18761 9.61376 9.02058C9.78078 8.85356 9.87462 8.62702 9.87462 8.39081C9.87462 8.15461 9.78078 7.92807 9.61376 7.76105C9.44673 7.59402 9.2202 7.50019 8.98399 7.50019H7.49962V4.82831Z" fill="#3557FF"/>
</svg>
